<svg width="119" height="110" viewBox="0 0 119 110" fill="none" xmlns="http://www.w3.org/2000/svg">
<circle cx="60.2607" cy="55" r="48" fill="#E4E6EA"/>
<path d="M40.9374 46.9803C40.9374 46.2723 41.5118 45.6979 42.2199 45.6979H78.1825V1.60287C78.1825 0.717424 77.4643 0 76.5789 0H1.86361C0.978166 0 0.260742 0.717424 0.260742 1.60287V62.3963C0.260742 63.2818 0.978166 64 1.86361 64H40.9374V46.9803Z" fill="#C9CDD5"/>
<path d="M70.0424 6.23328H8.40024C7.34755 6.23328 6.49414 7.08668 6.49414 8.13937V55.8598C6.49414 56.9125 7.34755 57.7659 8.40024 57.7659H40.9375V46.9803C40.9375 46.2723 41.5119 45.6978 42.22 45.6978H71.9485V8.13937C71.9485 7.08668 71.0951 6.23328 70.0424 6.23328Z" fill="white"/>
<path d="M22.6112 31.0055L6.49414 54.2718V55.8598C6.49414 56.9125 7.34755 57.7659 8.40024 57.7659H24.8744L34.4151 43.8316L25.2206 31.0048C24.5923 30.088 23.2387 30.088 22.6112 31.0055Z" fill="#C9CDD5"/>
<path d="M40.9377 46.9803C40.9377 46.2723 41.5121 45.6978 42.2201 45.6978H71.0984L53.4371 19.2579C52.8088 18.3404 51.4552 18.3404 50.8276 19.2579L24.4619 57.7659H40.9377V46.9803Z" fill="#E4E6EA"/>
<path d="M40.4695 18.4616C40.4695 21.7611 37.7944 24.4362 34.4948 24.4362C31.1953 24.4362 28.521 21.7611 28.521 18.4616C28.521 15.1621 31.1953 12.4877 34.4948 12.4877C37.7944 12.4877 40.4695 15.1621 40.4695 18.4616Z" fill="#E4E6EA"/>
<path d="M117.136 54.2719H42.4195C41.535 54.2719 40.8174 54.7854 40.8174 55.42V98.9345C40.8174 99.5681 41.535 100.082 42.4195 100.082H117.136C118.022 100.082 118.739 99.5681 118.739 98.9345V55.42C118.739 54.7854 118.022 54.2719 117.136 54.2719Z" fill="#AEB5BF"/>
<path d="M118.739 56.3358V46.6832C118.739 45.7977 118.022 45.0801 117.136 45.0801H42.4195C41.535 45.0801 40.8174 45.7977 40.8174 46.6832V56.3358H118.739Z" fill="#C9CDD5"/>
<path d="M40.8174 97.8254V107.478C40.8174 108.363 41.535 109.08 42.4195 109.08H117.136C118.022 109.08 118.739 108.363 118.739 107.478V97.8254H40.8174Z" fill="#C9CDD5"/>
<path d="M90.834 97.8254H94.6962V109.08H90.834V97.8254Z" fill="#AEB5BF"/>
<path d="M77.8472 97.8254H81.7094V109.08H77.8472V97.8254Z" fill="#AEB5BF"/>
<path d="M103.822 97.8254H107.684V109.08H103.822V97.8254Z" fill="#AEB5BF"/>
<path d="M51.873 97.8254H55.7353V109.08H51.873V97.8254Z" fill="#AEB5BF"/>
<path d="M64.8594 97.8254H68.7216V109.08H64.8594V97.8254Z" fill="#AEB5BF"/>
<path d="M86.3361 76.0178L76.3731 69.4191C75.6194 68.9202 74.6147 69.4601 74.6147 70.3631V83.7618C74.6147 84.6717 75.634 85.2106 76.3857 84.6971L86.3488 77.8972C87.0137 77.4442 87.0069 76.4611 86.3361 76.0178Z" fill="white"/>
<path d="M64.8594 45.0801H68.7216V56.3358H64.8594V45.0801Z" fill="#AEB5BF"/>
<path d="M51.873 45.0801H55.7353V56.3358H51.873V45.0801Z" fill="#AEB5BF"/>
<path d="M90.834 45.0801H94.6962V56.3358H90.834V45.0801Z" fill="#AEB5BF"/>
<path d="M77.8472 45.0801H81.7094V56.3358H77.8472V45.0801Z" fill="#AEB5BF"/>
<path d="M103.822 45.0801H107.684V56.3358H103.822V45.0801Z" fill="#AEB5BF"/>
</svg>
